<svg xmlns="http://www.w3.org/2000/svg" xmlns:xlink="http://www.w3.org/1999/xlink" width="500" zoomAndPan="magnify" viewBox="0 0 375 374.999991" height="500" preserveAspectRatio="xMidYMid meet" version="1.0"><defs><g/><clipPath id="b62f712ede"><path d="M 0.5 0.742188 L 134 0.742188 L 134 78.601562 L 0.5 78.601562 Z M 0.5 0.742188 " clip-rule="nonzero"/></clipPath><clipPath id="6749fed1a1"><path d="M 7.222656 4.507812 L 128 4.507812 L 128 75 L 7.222656 75 Z M 7.222656 4.507812 " clip-rule="nonzero"/></clipPath><clipPath id="a4118e1e4f"><rect x="0" width="135" y="0" height="79"/></clipPath><clipPath id="90807a1ceb"><path d="M 47 2 L 66.761719 2 L 66.761719 21 L 47 21 Z M 47 2 " clip-rule="nonzero"/></clipPath><clipPath id="56f976bfe6"><rect x="0" width="67" y="0" height="29"/></clipPath><clipPath id="b4de1a17bb"><rect x="0" width="72" y="0" height="28"/></clipPath></defs><rect x="-37.5" width="450" fill="#ffffff" y="-37.499999" height="449.999989" fill-opacity="1"/><rect x="-37.5" width="450" fill="#ffffff" y="-37.499999" height="449.999989" fill-opacity="1"/><g transform="matrix(1, 0, 0, 1, 37, 147)"><g clip-path="url(#a4118e1e4f)"><g clip-path="url(#b62f712ede)"><path fill="#00d686" d="M 24.46875 19.054688 C 25 19.570312 25.515625 20.082031 26.027344 20.585938 C 36.105469 30.542969 42.882812 37.238281 68.683594 29.425781 C 72.859375 28.160156 76.703125 26.957031 80.257812 25.847656 C 105.582031 17.929688 116.441406 14.53125 129.0625 25.304688 C 142.492188 36.769531 126.882812 60.453125 95.242188 68.679688 C 87.308594 80.3125 74.476562 79.328125 66.675781 76.378906 C 66.097656 76.160156 66.28125 75.214844 66.882812 75.0625 C 68.886719 74.546875 71.546875 73.378906 74.398438 71.132812 C 72.101562 71.039062 69.855469 70.8125 67.660156 70.46875 C 55.402344 77.582031 42.738281 72.871094 35.574219 67.683594 C 35.085938 67.328125 35.527344 66.484375 36.152344 66.496094 C 38.921875 66.5625 43.066406 65.914062 47.972656 63.558594 C 32.566406 54.730469 21.804688 39.175781 17.867188 21.929688 C 17.421875 19.972656 15.511719 19.066406 12.289062 19.054688 C 9.289062 19.042969 2.230469 16.925781 0.757812 14.347656 C 0.597656 14.066406 0.867188 13.777344 1.210938 13.78125 C 3.515625 13.8125 6.085938 13.058594 8.496094 12.355469 C 12.207031 11.269531 16.5 11.605469 17.867188 13.777344 C 16.5 11.605469 18.160156 8.539062 21.042969 6.144531 C 22.914062 4.585938 24.914062 2.925781 26.035156 1.085938 C 26.203125 0.808594 26.613281 0.742188 26.796875 1.007812 C 28.5 3.464844 27.144531 9.617188 25.652344 11.996094 C 24.050781 14.554688 22.992188 17.609375 24.46875 19.054688 Z M 24.46875 19.054688 " fill-opacity="1" fill-rule="nonzero"/></g><g clip-path="url(#6749fed1a1)"><path fill="#ffffff" d="M 28.925781 21.085938 C 29.402344 21.554688 29.871094 22.019531 30.332031 22.472656 C 39.457031 31.488281 45.59375 37.550781 68.953125 30.476562 C 72.734375 29.332031 76.214844 28.242188 79.433594 27.234375 C 102.359375 20.066406 112.195312 16.992188 123.621094 26.746094 C 135.777344 37.125 121.648438 58.570312 93 66.015625 C 85.816406 76.550781 74.199219 75.660156 67.136719 72.988281 C 66.613281 72.789062 66.777344 71.933594 67.324219 71.796875 C 69.136719 71.328125 71.546875 70.273438 74.128906 68.238281 C 72.050781 68.152344 70.015625 67.949219 68.027344 67.636719 C 56.929688 74.078125 45.464844 69.8125 38.976562 65.113281 C 38.535156 64.792969 38.933594 64.027344 39.5 64.042969 C 42.007812 64.097656 45.757812 63.511719 50.203125 61.382812 C 36.253906 53.386719 26.511719 39.304688 22.945312 23.691406 C 22.542969 21.917969 20.8125 21.097656 17.898438 21.085938 C 15.179688 21.078125 8.789062 19.160156 7.453125 16.824219 C 7.308594 16.570312 7.554688 16.308594 7.863281 16.3125 C 9.953125 16.339844 12.28125 15.660156 14.460938 15.019531 C 17.820312 14.039062 21.707031 14.34375 22.945312 16.308594 C 21.707031 14.34375 23.210938 11.566406 25.820312 9.398438 C 27.515625 7.988281 29.324219 6.484375 30.34375 4.816406 C 30.492188 4.566406 30.863281 4.507812 31.03125 4.746094 C 32.574219 6.972656 31.34375 12.542969 29.996094 14.699219 C 28.546875 17.011719 27.585938 19.777344 28.925781 21.085938 Z M 28.925781 21.085938 " fill-opacity="1" fill-rule="nonzero"/></g></g></g><g transform="matrix(1, 0, 0, 1, 179, 173)"><g clip-path="url(#56f976bfe6)"><g fill="#000000" fill-opacity="1"><g transform="translate(0.592078, 20.280534)"><g><path d="M 5.390625 -11.140625 L 5.390625 0 L 1.3125 0 L 1.3125 -17.953125 L 5.390625 -17.953125 L 12.53125 -6.8125 L 12.578125 -6.8125 L 12.578125 -17.953125 L 16.671875 -17.953125 L 16.671875 0 L 12.578125 0 L 5.4375 -11.140625 Z M 5.390625 -11.140625 "/></g></g></g><g fill="#000000" fill-opacity="1"><g transform="translate(18.566853, 20.280534)"><g><path d="M 11.578125 -17.953125 L 11.578125 -14.359375 L 5.390625 -14.359375 L 5.390625 -10.796875 L 11.3125 -10.796875 L 11.3125 -7.203125 L 5.390625 -7.203125 L 5.390625 -3.59375 L 11.578125 -3.59375 L 11.578125 0 L 1.3125 0 L 1.3125 -17.953125 Z M 11.578125 -17.953125 "/></g></g></g><g fill="#000000" fill-opacity="1"><g transform="translate(31.188366, 20.280534)"><g><path d="M 18.109375 0 L 12.8125 0 L 8.578125 -6.109375 L 4.328125 0 L -0.734375 0 L 6.046875 -9.65625 L 0.390625 -17.953125 L 5.265625 -17.953125 L 8.578125 -13.0625 L 11.890625 -17.953125 L 16.984375 -17.953125 L 11.09375 -9.65625 Z M 18.109375 0 "/></g></g></g><g clip-path="url(#90807a1ceb)"><g fill="#000000" fill-opacity="1"><g transform="translate(48.553827, 20.280534)"><g><path d="M 10.421875 -17.953125 L 17.671875 0 L 13.28125 0 L 11.953125 -3.59375 L 5.109375 -3.59375 L 3.78125 0 L -0.609375 0 L 6.640625 -17.953125 Z M 10.5625 -7.1875 L 8.546875 -12.40625 L 8.515625 -12.40625 L 6.515625 -7.1875 Z M 10.5625 -7.1875 "/></g></g></g></g></g></g><g transform="matrix(1, 0, 0, 1, 246, 174)"><g clip-path="url(#b4de1a17bb)"><g fill="#00d686" fill-opacity="1"><g transform="translate(0.581561, 18.970756)"><g><path d="M 8.15625 0 L 5.546875 0 L -0.4375 -11.171875 L 4 -11.171875 L 6.71875 -5.140625 L 9.40625 -11.171875 L 12.0625 -11.171875 L 14.734375 -5.140625 L 17.453125 -11.171875 L 21.890625 -11.171875 L 15.90625 0 L 13.296875 0 L 10.734375 -5.765625 Z M 8.15625 0 "/></g></g></g><g fill="#00d686" fill-opacity="1"><g transform="translate(22.034677, 18.970756)"><g><path d="M 1.3125 0 L 1.3125 -18.71875 L 5.15625 -18.71875 L 5.15625 -9.984375 L 5.203125 -9.984375 C 6.203125 -10.992188 7.269531 -11.5 8.40625 -11.5 C 8.957031 -11.5 9.503906 -11.425781 10.046875 -11.28125 C 10.585938 -11.132812 11.109375 -10.90625 11.609375 -10.59375 C 12.109375 -10.289062 12.515625 -9.859375 12.828125 -9.296875 C 13.140625 -8.742188 13.296875 -8.097656 13.296875 -7.359375 L 13.296875 0 L 9.453125 0 L 9.453125 -6.3125 C 9.453125 -6.894531 9.265625 -7.398438 8.890625 -7.828125 C 8.523438 -8.265625 8.039062 -8.484375 7.4375 -8.484375 C 6.863281 -8.484375 6.335938 -8.257812 5.859375 -7.8125 C 5.390625 -7.363281 5.15625 -6.863281 5.15625 -6.3125 L 5.15625 0 Z M 1.3125 0 "/></g></g></g><g fill="#00d686" fill-opacity="1"><g transform="translate(36.416534, 18.970756)"><g><path d="M 2.0625 -1.375 C 1.019531 -2.519531 0.5 -3.914062 0.5 -5.5625 C 0.5 -7.21875 1.019531 -8.617188 2.0625 -9.765625 C 3.113281 -10.921875 4.441406 -11.5 6.046875 -11.5 C 7.523438 -11.5 8.742188 -11.03125 9.703125 -10.09375 L 9.703125 -11.171875 L 13.5625 -11.171875 L 13.5625 0 L 9.75 0 L 9.75 -1.265625 L 9.703125 -1.265625 C 8.742188 -0.203125 7.523438 0.328125 6.046875 0.328125 C 4.441406 0.328125 3.113281 -0.238281 2.0625 -1.375 Z M 5.34375 -7.453125 C 4.84375 -6.960938 4.59375 -6.332031 4.59375 -5.5625 C 4.59375 -4.800781 4.832031 -4.175781 5.3125 -3.6875 C 5.789062 -3.195312 6.421875 -2.953125 7.203125 -2.953125 C 7.960938 -2.953125 8.582031 -3.195312 9.0625 -3.6875 C 9.550781 -4.1875 9.796875 -4.816406 9.796875 -5.578125 C 9.796875 -6.335938 9.546875 -6.960938 9.046875 -7.453125 C 8.546875 -7.953125 7.929688 -8.203125 7.203125 -8.203125 C 6.460938 -8.203125 5.84375 -7.953125 5.34375 -7.453125 Z M 5.34375 -7.453125 "/></g></g></g><g fill="#00d686" fill-opacity="1"><g transform="translate(51.277057, 18.970756)"><g><path d="M 1.3125 0 L 1.3125 -18.71875 L 5.15625 -18.71875 L 5.15625 0 Z M 1.3125 0 "/></g></g></g><g fill="#00d686" fill-opacity="1"><g transform="translate(57.739101, 18.970756)"><g><path d="M 12.609375 -5.046875 L 4.5 -5.046875 C 4.5 -4.265625 4.753906 -3.6875 5.265625 -3.3125 C 5.773438 -2.9375 6.328125 -2.75 6.921875 -2.75 C 7.546875 -2.75 8.039062 -2.832031 8.40625 -3 C 8.769531 -3.164062 9.179688 -3.492188 9.640625 -3.984375 L 12.421875 -2.59375 C 11.265625 -0.644531 9.335938 0.328125 6.640625 0.328125 C 4.953125 0.328125 3.503906 -0.25 2.296875 -1.40625 C 1.097656 -2.5625 0.5 -3.953125 0.5 -5.578125 C 0.5 -7.203125 1.097656 -8.59375 2.296875 -9.75 C 3.503906 -10.914062 4.953125 -11.5 6.640625 -11.5 C 8.410156 -11.5 9.847656 -10.984375 10.953125 -9.953125 C 12.066406 -8.929688 12.625 -7.472656 12.625 -5.578125 C 12.625 -5.316406 12.617188 -5.140625 12.609375 -5.046875 Z M 4.609375 -7.1875 L 8.859375 -7.1875 C 8.773438 -7.757812 8.546875 -8.203125 8.171875 -8.515625 C 7.804688 -8.828125 7.332031 -8.984375 6.75 -8.984375 C 6.113281 -8.984375 5.601562 -8.816406 5.21875 -8.484375 C 4.84375 -8.148438 4.640625 -7.71875 4.609375 -7.1875 Z M 4.609375 -7.1875 "/></g></g></g></g></g></svg>